<svg width="164" height="36" viewBox="0 0 164 36" fill="none" xmlns="http://www.w3.org/2000/svg" role="img" aria-label="Mae Pai">
  <rect x="0.75" y="0.75" width="34.5" height="34.5" rx="10" fill="#E5F1EA" stroke="#C8DED2"/>
  <path d="M18 9C13.5817 9 10 12.5817 10 17C10 21.4183 13.5817 25 18 25C22.4183 25 26 21.4183 26 17" stroke="#1F5F47" stroke-width="2.2" stroke-linecap="round"/>
  <path d="M25.8 11.2C23.7 11.5 21.7 12.5 20.4 14.2C19.2 15.8 18.6 17.8 18.8 19.8C20.9 19.4 22.8 18.4 24.1 16.8C25.3 15.2 25.9 13.2 25.8 11.2Z" fill="#1F5F47"/>
  <path d="M12 24.5H24" stroke="#1F5F47" stroke-width="2" stroke-linecap="round"/>
  <text x="44" y="16" fill="#173127" font-family="Manrope, sans-serif" font-size="12" font-weight="800">Mae Pai</text>
  <text x="44" y="29" fill="#4D655A" font-family="Manrope, sans-serif" font-size="10" font-weight="600">School Fund</text>
</svg>
